<svg width="52" height="52" viewBox="0 0 52 52" fill="none" xmlns="http://www.w3.org/2000/svg">
<path id="Vector" d="M2 46.3077V5.69231C2 4.71305 2.38901 3.77389 3.08145 3.08145C3.77389 2.38901 4.71305 2 5.69231 2H46.3077C47.287 2 48.2261 2.38901 48.9185 3.08145C49.611 3.77389 50 4.71305 50 5.69231V46.3077C50 47.287 49.611 48.2261 48.9185 48.9185C48.2261 49.611 47.287 50 46.3077 50H35.2308V32.4985H37.8523C38.4497 32.4985 39.0225 32.2612 39.4449 31.8388C39.8673 31.4164 40.1046 30.8435 40.1046 30.2462V27.4031C40.1036 26.806 39.866 26.2337 39.4439 25.8115C39.0217 25.3894 38.4494 25.1517 37.8523 25.1508H35.3785V21.68C35.3785 18.5785 36.7815 18.5785 38.1846 18.5785H39.9938C40.291 18.5907 40.5872 18.5375 40.8616 18.4227C41.1359 18.3078 41.3817 18.1341 41.5815 17.9138C41.7961 17.7096 41.966 17.463 42.0804 17.1897C42.1948 16.9164 42.2512 16.6224 42.2462 16.3262V13.5938C42.257 13.2929 42.2082 12.9929 42.1025 12.7109C41.9968 12.429 41.8364 12.1707 41.6305 11.951C41.4245 11.7314 41.1772 11.5546 40.9026 11.431C40.6281 11.3074 40.3318 11.2393 40.0308 11.2308H35.7846C34.5457 11.1842 33.3113 11.4071 32.1669 11.8841C31.0226 12.3612 29.9953 13.0809 29.1563 13.9937C28.3172 14.9065 27.6863 15.9906 27.3071 17.171C26.9279 18.3514 26.8095 19.6001 26.96 20.8308V25.1508H24.5969C24.2981 25.1459 24.0012 25.2005 23.7237 25.3115C23.4461 25.4225 23.1935 25.5876 22.9804 25.7973C22.7673 26.0069 22.5981 26.2568 22.4826 26.5325C22.3671 26.8082 22.3077 27.1042 22.3077 27.4031V30.2462C22.3077 30.5451 22.3671 30.841 22.4826 31.1167C22.5981 31.3924 22.7673 31.6423 22.9804 31.852C23.1935 32.0616 23.4461 32.2267 23.7237 32.3377C24.0012 32.4487 24.2981 32.5034 24.5969 32.4985H26.96V50H5.69231C4.71305 50 3.77389 49.611 3.08145 48.9185C2.38901 48.2261 2 47.287 2 46.3077Z" stroke="white" stroke-width="4" stroke-linecap="round" stroke-linejoin="round"/>
</svg>
