<svg width="100" height="92" viewBox="0 0 100 92" fill="none" xmlns="http://www.w3.org/2000/svg">
<path id="icon5" fill-rule="evenodd" clip-rule="evenodd" d="M83.5887 8.85497H78.7052C78.5624 8.83784 78.4179 8.85173 78.2801 8.89596C78.1424 8.9402 78.0143 9.0138 77.9034 9.11243C77.7925 9.21106 77.701 9.33292 77.6343 9.4704C77.5676 9.60789 77.5271 9.75848 77.5152 9.91317V27.1172C77.6564 27.4404 77.8798 27.7136 78.1593 27.905C78.4388 28.0963 78.7629 28.1978 79.0937 28.1978C79.4246 28.1978 79.7486 28.0963 80.0281 27.905C80.3076 27.7136 80.531 27.4404 80.6722 27.1172V20.9761H83.3929C84.1525 21.0814 84.9242 20.9999 85.6506 20.738C86.377 20.476 87.0392 20.0404 87.588 19.4633C88.1367 18.8862 88.5577 18.1825 88.8195 17.405C89.0814 16.6276 89.1774 15.7962 89.1003 14.9731V14.8119C89.1885 14.0069 89.1066 13.1908 88.8609 12.4249C88.6151 11.6589 88.2118 10.9632 87.6813 10.3899C87.1508 9.81656 86.507 9.3805 85.7982 9.11468C85.0893 8.84885 84.3339 8.76001 83.5887 8.85497ZM85.9433 15.226C86.0053 15.617 85.9843 16.0181 85.8821 16.3991C85.7799 16.78 85.599 17.131 85.3531 17.4255C85.1072 17.72 84.8026 17.9502 84.4623 18.0991C84.1221 18.248 83.7549 18.3115 83.3886 18.2849H80.668V11.8681H83.3886C83.7532 11.8405 84.1189 11.9025 84.4582 12.0495C84.7974 12.1965 85.1014 12.4247 85.3472 12.7169C85.5931 13.0091 85.7745 13.3578 85.8777 13.7366C85.9809 14.1154 86.0033 14.5145 85.9433 14.904V15.226ZM57.2402 15.5711C54.9845 13.1014 52.2973 11.1402 49.3344 9.8017C46.3715 8.46323 43.192 7.77404 39.9806 7.77404C36.7692 7.77404 33.5897 8.46323 30.6269 9.8017C27.664 11.1402 24.9767 13.1014 22.7211 15.5711C22.4528 15.8654 22.3023 16.2619 22.3023 16.6751C22.3023 17.0882 22.4528 17.4847 22.7211 17.779C22.9887 18.0664 23.3507 18.2277 23.728 18.2277C24.1053 18.2277 24.4673 18.0664 24.7349 17.779C26.7287 15.6003 29.1027 13.8707 31.7195 12.6902C34.3363 11.5097 37.1438 10.9017 39.9796 10.9017C42.8153 10.9017 45.6229 11.5097 48.2397 12.6902C50.8564 13.8707 53.2304 15.6003 55.2241 17.779C55.3552 17.9244 55.512 18.0401 55.6851 18.119C55.8582 18.1979 56.0442 18.2386 56.2321 18.2386C56.42 18.2386 56.606 18.1979 56.7792 18.119C56.9523 18.0401 57.1091 17.9244 57.2402 17.779C57.5075 17.4841 57.6572 17.0878 57.6572 16.6751C57.6572 16.2623 57.5075 15.866 57.2402 15.5711ZM51.3624 21.9882C49.8748 20.3598 48.1027 19.0667 46.1488 18.1842C44.195 17.3016 42.0983 16.8472 39.9806 16.8472C37.8629 16.8472 35.7662 17.3016 33.8124 18.1842C31.8585 19.0667 30.0864 20.3598 28.5988 21.9882C28.3315 22.2831 28.1818 22.6794 28.1818 23.0922C28.1818 23.5049 28.3315 23.9012 28.5988 24.1961C28.8664 24.4835 29.2284 24.6448 29.6057 24.6448C29.983 24.6448 30.3451 24.4835 30.6127 24.1961C31.8377 22.8573 33.2963 21.7944 34.9042 21.069C36.512 20.3436 38.2371 19.9701 39.9796 19.9701C41.722 19.9701 43.4471 20.3436 45.055 21.069C46.6628 21.7944 48.1215 22.8573 49.3464 24.1961C49.6178 24.4766 49.9789 24.633 50.3545 24.633C50.73 24.633 51.091 24.4766 51.3624 24.1961C51.6297 23.9012 51.7795 23.5049 51.7795 23.0922C51.7795 22.6794 51.6297 22.2831 51.3624 21.9882ZM45.5784 28.2902C44.846 27.4908 43.9742 26.8562 43.0133 26.4231C42.0525 25.9901 41.0217 25.767 39.9806 25.767C38.9395 25.767 37.9088 25.9901 36.9479 26.4231C35.9871 26.8562 35.1153 27.4908 34.3829 28.2902C34.115 28.5848 33.9649 28.9812 33.9649 29.3942C33.9649 29.8071 34.115 30.2035 34.3829 30.4981C34.6505 30.7855 35.0125 30.9468 35.3898 30.9468C35.7671 30.9468 36.1291 30.7855 36.3967 30.4981C36.8648 29.9847 37.4227 29.577 38.038 29.2987C38.6532 29.0204 39.3136 28.877 39.9806 28.877C40.6476 28.877 41.308 29.0204 41.9232 29.2987C42.5385 29.577 43.0964 29.9847 43.5645 30.4981C43.8355 30.7784 44.1962 30.935 44.5714 30.935C44.9466 30.935 45.3074 30.7784 45.5784 30.4981C45.8451 30.2023 45.9936 29.8051 45.9921 29.3922C45.9905 28.9792 45.8389 28.5836 45.5699 28.2902H45.5784ZM70.1004 58.5351C69.4798 58.1694 68.8765 57.7705 68.293 57.3393L58.8708 50.3932C56.0273 48.299 52.6665 47.177 49.2251 47.1732H31.9283C29.6647 47.1702 27.4232 47.6548 25.335 48.5986C23.2467 49.5424 21.3536 50.9267 19.7663 52.6702C18.0997 54.4715 16.1914 55.9912 14.1057 57.1781C13.3691 57.5968 12.7828 58.2691 12.4399 59.0885C12.097 59.9078 12.0169 60.8274 12.2124 61.7015C12.408 62.5756 12.8679 63.3539 13.5193 63.9136C14.1708 64.4733 14.9765 64.7823 15.8088 64.7913H21.7056C21.8928 64.7913 22.0782 64.7514 22.2511 64.6739C22.4241 64.5965 22.5812 64.483 22.7134 64.3398C22.8457 64.1967 22.9506 64.0267 23.022 63.8398C23.0935 63.6528 23.1301 63.4525 23.1298 63.2502C23.131 62.8394 22.9821 62.4447 22.7154 62.1519C22.4487 61.859 22.0858 61.6915 21.7056 61.6861H15.8088C15.5829 61.6861 15.3663 61.5893 15.2066 61.4168C15.0469 61.2443 14.9572 61.0103 14.9572 60.7663C14.9553 60.5958 14.9973 60.4279 15.0785 60.2817C15.1597 60.1355 15.2769 60.0167 15.4171 59.9383C17.7645 58.6036 19.9095 56.8893 21.778 54.8551C23.1046 53.4034 24.6852 52.2512 26.4277 51.4655C28.1703 50.6797 30.04 50.2761 31.9283 50.2781H35.8006V61.6861H31.0682C30.6878 61.6915 30.3248 61.8588 30.0578 62.1516C29.7907 62.4444 29.6413 62.8392 29.6419 63.2502C29.6425 63.6587 29.7929 64.0504 30.0603 64.3393C30.3277 64.6281 30.6901 64.7907 31.0682 64.7913H70.1302C70.6948 64.7913 71.2363 64.5488 71.6355 64.1175C72.0348 63.6861 72.2591 63.1013 72.2591 62.4913C72.2564 61.6843 72.055 60.8924 71.6757 60.1972C71.2963 59.502 70.7527 58.9284 70.1004 58.5351ZM38.6512 61.6861V50.2781H49.2251C52.0979 50.2822 54.9032 51.2199 57.2764 52.9692L66.6986 59.9153C67.3542 60.3983 68.0355 60.8582 68.7295 61.2722C68.9048 61.3704 69.0558 61.5122 69.1702 61.6861H38.6512ZM42.1786 67.1601H37.7784C37.3972 67.1601 37.0318 67.3238 36.7623 67.6149C36.4928 67.9061 36.3414 68.301 36.3414 68.7127C36.3414 69.1245 36.4928 69.5193 36.7623 69.8105C37.0318 70.1016 37.3972 70.2653 37.7784 70.2653H42.1786C42.5597 70.2653 42.9252 70.1016 43.1947 69.8105C43.4642 69.5193 43.6156 69.1245 43.6156 68.7127C43.6156 68.301 43.4642 67.9061 43.1947 67.6149C42.9252 67.3238 42.5597 67.1601 42.1786 67.1601ZM98.7716 65.8492L98.3203 65.0443C97.4805 63.5306 96.3592 62.2218 95.0272 61.2003C93.6952 60.1789 92.1816 59.467 90.582 59.1101L86.9033 58.3281V37.9962H96.4214C97.369 37.9877 98.2749 37.5738 98.9408 36.8453C99.6067 36.1168 99.9784 35.1329 99.9744 34.109V3.86414C99.9761 3.35832 99.8855 2.85698 99.7078 2.38901C99.5301 1.92104 99.2689 1.49536 98.9389 1.13653C98.6089 0.77769 98.2168 0.492638 97.7848 0.297608C97.3529 0.102579 96.8895 0.00150754 96.4214 0H68.6762C68.2081 0.00150754 67.7448 0.102579 67.3128 0.297608C66.8809 0.492638 66.4886 0.77769 66.1587 1.13653C65.8287 1.49536 65.5675 1.92104 65.3898 2.38901C65.2121 2.85698 65.1216 3.35832 65.1232 3.86414V15.3411C65.1158 15.5484 65.1472 15.7549 65.2155 15.9487C65.2838 16.1425 65.3876 16.3195 65.5207 16.469C65.6537 16.6184 65.8134 16.7373 65.99 16.8185C66.1666 16.8997 66.3565 16.9415 66.5485 16.9415C66.7404 16.9415 66.9304 16.8997 67.107 16.8185C67.2836 16.7373 67.4433 16.6184 67.5763 16.469C67.7094 16.3195 67.8132 16.1425 67.8815 15.9487C67.9498 15.7549 67.9811 15.5484 67.9737 15.3411V3.86414C67.9749 3.66281 68.0495 3.47002 68.1815 3.32788C68.3135 3.18573 68.492 3.10556 68.6784 3.10495H96.4214C96.6077 3.10556 96.7863 3.18573 96.9182 3.32788C97.0502 3.47002 97.1249 3.66281 97.126 3.86414V34.109C97.1274 34.2104 97.1103 34.3113 97.0756 34.4055C97.0409 34.4997 96.9894 34.5855 96.9239 34.6582C96.8584 34.7308 96.7803 34.7886 96.6941 34.8286C96.6079 34.8686 96.5152 34.89 96.4214 34.8912H68.6762C68.5825 34.89 68.4899 34.8686 68.4038 34.8286C68.3177 34.7886 68.2397 34.7306 68.1744 34.6579C68.1091 34.5852 68.0578 34.4994 68.0234 34.4052C67.9889 34.311 67.972 34.2103 67.9737 34.109V25.4382C67.9811 25.231 67.9498 25.0242 67.8815 24.8304C67.8132 24.6366 67.7094 24.4596 67.5763 24.3101C67.4433 24.1607 67.2836 24.0418 67.107 23.9606C66.9304 23.8794 66.7404 23.8376 66.5485 23.8376C66.3565 23.8376 66.1666 23.8794 65.99 23.9606C65.8134 24.0418 65.6537 24.1607 65.5207 24.3101C65.3876 24.4596 65.2838 24.6366 65.2155 24.8304C65.1472 25.0242 65.1158 25.231 65.1232 25.4382V34.109C65.1193 35.1329 65.4909 36.1168 66.1568 36.8453C66.8227 37.5738 67.7286 37.9877 68.6762 37.9962H79.4694V56.7183L77.579 56.3041C75.1124 55.6008 72.7916 54.3988 70.7391 52.762L61.3168 45.8393C57.7573 43.2011 53.5416 41.7897 49.2251 41.7912H31.9304C29.0934 41.7844 26.2837 42.389 23.6657 43.5699C21.0477 44.7507 18.6741 46.484 16.6837 48.6682C14.1222 51.463 10.8567 53.3827 7.29341 54.1883L5.24761 54.6482C3.75971 55.0042 2.42871 55.8979 1.47459 57.1818C0.520467 58.4656 0.000329161 60.0626 3.52114e-05 61.7091V76.7512C-0.00328998 77.6264 0.228962 78.4838 0.668545 79.2188C1.10813 79.9539 1.73606 80.535 2.47586 80.8913L8.14922 83.6512C8.50186 85.6699 9.40565 87.5282 10.7443 88.9871C11.6185 89.9417 12.6592 90.6995 13.8062 91.2167C14.9532 91.7338 16.1838 92 17.4267 92C18.6696 92 19.9001 91.7338 21.0471 91.2167C22.1941 90.6995 23.2348 89.9417 24.1091 88.9871C25.2529 87.7384 26.0824 86.1946 26.5189 84.5022H73.8302C74.265 86.1954 75.0947 87.7396 76.24 88.9871C77.4049 90.2523 78.8571 91.1646 80.451 91.6325C82.045 92.1004 83.7248 92.1078 85.3221 91.6535C86.9194 91.1993 88.3782 90.2995 89.5524 89.0444C90.7266 87.7893 91.575 86.223 92.0125 84.5022H94.7162C96.1247 84.4913 97.4718 83.8776 98.4622 82.7955C99.4527 81.7134 100.006 80.251 99.9999 78.7292V70.6792C99.9982 68.9794 99.574 67.3114 98.7716 65.8492ZM82.32 37.9962H84.055V57.7071L82.32 57.3163V37.9962ZM22.0952 86.7792C21.4861 87.4492 20.7596 87.9815 19.958 88.3448C19.1564 88.708 18.2959 88.8951 17.4267 88.8951C16.5575 88.8951 15.697 88.708 14.8954 88.3448C14.0938 87.9815 13.3672 87.4492 12.7581 86.7792C11.8054 85.7378 11.1675 84.4084 10.9288 82.967C10.6901 81.5256 10.8618 80.0399 11.4212 78.7062L11.4467 78.6371C11.4808 78.5681 11.517 78.4992 11.5532 78.4072C11.5752 78.3713 11.5931 78.3329 11.6064 78.2923C11.6405 78.2233 11.6724 78.1772 11.7086 78.1082L11.7831 77.9703C11.8151 77.9013 11.8491 77.8551 11.8832 77.7861C11.9192 77.7354 11.9512 77.6817 11.979 77.6252C12.0088 77.5792 12.0429 77.5331 12.0748 77.4871C12.1067 77.4411 12.1536 77.3722 12.194 77.3032C12.2291 77.2694 12.2599 77.2309 12.2855 77.1884C12.3284 77.1223 12.3769 77.0606 12.4303 77.0042C12.458 76.9582 12.4856 76.9354 12.5133 76.8894C12.582 76.7985 12.6575 76.7136 12.739 76.6361C12.739 76.6131 12.7517 76.6134 12.7581 76.6134C12.767 76.5924 12.783 76.5759 12.8029 76.5673L13.0008 76.3601C13.0126 76.3381 13.0316 76.3219 13.054 76.3144L13.2669 76.1072H13.2882C14.4594 75.0717 15.9261 74.506 17.4394 74.506C18.9528 74.506 20.4195 75.0717 21.5907 76.1072L21.8036 76.3144C21.8163 76.3374 21.8312 76.3371 21.844 76.3601C21.9313 76.4378 22.0132 76.5226 22.0888 76.6134C22.174 76.7054 22.257 76.7974 22.3379 76.8894L22.4401 77.0272C22.4826 77.0732 22.5231 77.1424 22.5636 77.1884C22.604 77.2344 22.6529 77.3033 22.6955 77.3723C22.7381 77.4413 22.7445 77.4411 22.7679 77.4871C22.824 77.5592 22.8745 77.6364 22.9191 77.7173C22.9256 77.7229 22.9311 77.7296 22.9351 77.7375C22.9391 77.7455 22.9417 77.7544 22.9425 77.7634C23.7719 79.1461 24.1399 80.7929 23.9859 82.4322C23.8318 84.0714 23.1649 85.6048 22.0952 86.7792ZM87.5888 86.7792C86.9799 87.4491 86.2536 87.9812 85.4522 88.3445C84.6508 88.7077 83.7904 88.8948 82.9214 88.8948C82.0523 88.8948 81.192 88.7077 80.3906 88.3445C79.5892 87.9812 78.8628 87.4491 78.2539 86.7792C77.1825 85.606 76.5141 84.0729 76.3592 82.4333C76.2044 80.7937 76.5724 79.1462 77.4024 77.7634C77.405 77.7456 77.4133 77.7293 77.4258 77.7173C77.471 77.6363 77.5223 77.5592 77.579 77.4871C77.6024 77.4411 77.6259 77.4183 77.6493 77.3723C77.6727 77.3263 77.7366 77.2574 77.7813 77.1884C77.826 77.1194 77.8643 77.0732 77.9048 77.0272L78.009 76.8894C78.0899 76.7974 78.1708 76.7054 78.2581 76.6134C78.8671 75.9435 79.5934 75.4114 80.3948 75.0481C81.1962 74.6849 82.0565 74.4978 82.9256 74.4978C83.7947 74.4978 84.655 74.6849 85.4564 75.0481C86.2578 75.4114 86.9842 75.9435 87.5931 76.6134C87.6804 76.7054 87.7634 76.7974 87.8443 76.8894L87.9464 77.0272C87.989 77.0732 88.0316 77.1424 88.0699 77.1884C88.1083 77.2344 88.1593 77.3033 88.204 77.3723C88.2487 77.4413 88.2509 77.4411 88.2743 77.4871C88.3304 77.5597 88.3816 77.6368 88.4276 77.7173C88.4393 77.73 88.4474 77.746 88.451 77.7634C89.2792 79.1476 89.6452 80.7957 89.4884 82.4353C89.3316 84.0748 88.6615 85.6072 87.5888 86.7792ZM97.1494 78.7292C97.1539 79.4315 96.9002 80.1072 96.4439 80.6075C95.9876 81.1078 95.3662 81.3918 94.7162 81.3973H92.3745C92.3246 79.1488 91.5873 76.9813 90.2775 75.2331C90.2743 75.215 90.2653 75.1987 90.252 75.1871C90.1711 75.0721 90.086 74.9803 90.0008 74.8653L89.9348 74.7963C89.849 74.682 89.7558 74.5743 89.6559 74.4742L89.6091 74.4052C88.4032 73.0919 86.8919 72.1545 85.2343 71.6913C84.4779 71.4986 83.7038 71.3983 82.9266 71.3923C82.3015 71.3916 81.678 71.4609 81.0661 71.5992C79.2364 71.9961 77.5578 72.973 76.2443 74.4052L76.1974 74.4742C76.0969 74.5743 76.0029 74.6819 75.9164 74.7963L75.8525 74.8653C75.7674 74.9803 75.6823 75.0721 75.6014 75.1871C75.5924 75.1942 75.5839 75.2019 75.5758 75.2101C74.2692 76.9692 73.5318 79.1425 73.4768 81.3973H26.8766C26.8249 79.1407 26.0847 76.9655 24.7711 75.2101C24.7648 75.203 24.7591 75.1953 24.7541 75.1871C24.6661 75.0721 24.5767 74.9573 24.4859 74.8423C24.4688 74.8193 24.454 74.8193 24.4369 74.7963C24.3305 74.6583 24.224 74.5432 24.1091 74.4052C23.6576 73.9113 23.158 73.4718 22.6189 73.0943C20.8048 71.7889 18.6268 71.2056 16.4584 71.4448C14.29 71.684 12.2662 72.7306 10.7336 74.4052C10.6252 74.5209 10.5235 74.6439 10.4292 74.7733C10.3994 74.7963 10.3696 74.8423 10.3419 74.8653C10.2717 74.9573 10.2014 75.0493 10.129 75.1413C10.0929 75.1734 10.0627 75.2122 10.0396 75.2562L9.82673 75.5322C9.81212 75.5664 9.7919 75.5977 9.76709 75.6242C9.58827 75.9002 9.42227 76.1762 9.26899 76.4522C9.26899 76.4522 9.26897 76.4752 9.2562 76.4752C9.18169 76.6132 9.10929 76.7514 9.0433 76.8894C9.0433 76.9124 9.0433 76.9121 9.0433 76.9121C8.54714 77.9411 8.21465 79.0531 8.05976 80.2012L3.62116 78.0621C3.38841 77.9471 3.191 77.7626 3.05218 77.5303C2.91336 77.298 2.83898 77.0277 2.83779 76.7512V61.7091C2.8365 60.7745 3.13151 59.8677 3.67378 59.1395C4.21606 58.4114 4.97288 57.9058 5.81815 57.7071L7.86395 57.2242C11.9725 56.3005 15.7361 54.0837 18.6806 50.8531C20.4111 48.9614 22.4726 47.4606 24.7451 46.4379C27.0177 45.4151 29.4558 44.8911 31.9176 44.8962H49.2123C52.9604 44.8946 56.6207 46.1217 59.7096 48.4153L69.1318 55.3383C71.489 57.2176 74.1654 58.5774 77.0085 59.3403L90.0093 62.1693C91.2205 62.435 92.3669 62.9711 93.375 63.7435C94.3832 64.5158 95.2308 65.5072 95.8636 66.6542L96.3128 67.4591C96.8494 68.4331 97.1326 69.5457 97.1324 70.6792V78.7292H97.1494ZM20.4858 78.3611C20.0857 77.924 19.6093 77.5771 19.0842 77.3403C18.5591 77.1034 17.9957 76.9815 17.4267 76.9815C16.8577 76.9815 16.2942 77.1034 15.7691 77.3403C15.244 77.5771 14.7676 77.924 14.3675 78.3611C13.5558 79.2496 13.1006 80.4479 13.1006 81.6963C13.1006 82.9447 13.5558 84.1427 14.3675 85.0312C14.7676 85.4683 15.244 85.8155 15.7691 86.0523C16.2942 86.2892 16.8577 86.4111 17.4267 86.4111C17.9957 86.4111 18.5591 86.2892 19.0842 86.0523C19.6093 85.8155 20.0857 85.4683 20.4858 85.0312C21.296 84.1419 21.7502 82.9442 21.7502 81.6963C21.7502 80.4484 21.296 79.2504 20.4858 78.3611ZM18.4698 82.8463C18.1912 83.1413 17.8168 83.3065 17.4267 83.3065C17.0366 83.3065 16.6621 83.1413 16.3835 82.8463C16.1091 82.537 15.9565 82.1247 15.9578 81.6963C15.9552 81.4872 15.9915 81.2795 16.0647 81.0859C16.1378 80.8923 16.2462 80.7167 16.3835 80.5693C16.5181 80.4168 16.68 80.2954 16.8593 80.2125C17.0386 80.1295 17.2316 80.0867 17.4267 80.0867C17.6217 80.0867 17.8147 80.1295 17.994 80.2125C18.1734 80.2954 18.3352 80.4168 18.4698 80.5693C18.7462 80.873 18.9011 81.2819 18.9011 81.7078C18.9011 82.1337 18.7462 82.5426 18.4698 82.8463ZM85.9794 78.3611C85.5795 77.9241 85.1033 77.5771 84.5784 77.3403C84.0534 77.1034 83.4902 76.9817 82.9214 76.9817C82.3525 76.9817 81.7893 77.1034 81.2643 77.3403C80.7394 77.5771 80.2632 77.9241 79.8633 78.3611C79.053 79.2504 78.5989 80.4484 78.5989 81.6963C78.5989 82.9442 79.053 84.1419 79.8633 85.0312C80.2632 85.4683 80.7394 85.8152 81.2643 86.052C81.7893 86.2889 82.3525 86.4109 82.9214 86.4109C83.4902 86.4109 84.0534 86.2889 84.5784 86.052C85.1033 85.8152 85.5795 85.4683 85.9794 85.0312C86.7912 84.1427 87.2464 82.9447 87.2464 81.6963C87.2464 80.4479 86.7912 79.2496 85.9794 78.3611ZM83.9655 82.8463C83.6869 83.142 83.312 83.3076 82.9214 83.3076C82.5308 83.3076 82.1558 83.142 81.8772 82.8463C81.6008 82.5426 81.4459 82.1337 81.4459 81.7078C81.4459 81.2819 81.6008 80.873 81.8772 80.5693C82.0119 80.4167 82.174 80.2952 82.3534 80.2122C82.5329 80.1292 82.7262 80.0864 82.9214 80.0864C83.1166 80.0864 83.3098 80.1292 83.4893 80.2122C83.6687 80.2952 83.8307 80.4167 83.9655 80.5693C84.1028 80.7167 84.2112 80.8923 84.2844 81.0859C84.3575 81.2795 84.3939 81.4872 84.3913 81.6963C84.3926 82.1247 84.24 82.537 83.9655 82.8463Z" fill="white"/>
</svg>
