<svg width="100" height="84" viewBox="0 0 100 84" fill="none" xmlns="http://www.w3.org/2000/svg">
<path id="Vector" fill-rule="evenodd" clip-rule="evenodd" d="M77.6089 0.327546C73.2216 1.98358 68.7729 7.06575 65.0017 14.7297C61.6671 21.5063 60.0096 27.5675 60.008 32.9892C60.0074 35.6801 60.0522 36.0582 60.537 37.452C60.8282 38.2893 61.2764 39.3071 61.5326 39.7136C63.1083 42.2127 67.1974 44.424 72.0966 45.4265C73.591 45.7323 77.4795 46.2194 78.426 46.2194C78.6223 46.2194 78.6856 46.6486 78.6856 47.9834C78.6856 49.4744 78.6368 49.7474 78.3704 49.7474C77.7418 49.7474 75.7006 51.0148 75.0512 51.8082C74.2707 52.7618 73.6821 54.0387 73.5164 55.1375C73.2831 56.685 71.6381 74.7185 71.6381 75.7287C71.6381 77.8647 72.6923 80.1956 74.3686 81.7654C77.6465 84.8354 82.6114 84.7305 85.8781 81.5225C87.1259 80.2971 88.0051 78.5862 88.2868 76.8355C88.5706 75.0705 86.6921 55.329 86.0856 53.7065C85.5283 52.2149 83.8529 50.5183 82.4419 50.0166L81.4263 49.6555V47.9573V46.2592L82.8455 46.1306C88.7895 45.5922 93.0474 44.3258 95.9955 42.2193C97.575 41.091 98.6683 39.6809 99.3611 37.8792C99.8145 36.7003 99.8973 36.1436 99.9785 33.7363C100.035 32.066 99.9778 30.3047 99.8356 29.3262C99.5093 27.0795 98.4432 23.0336 97.4687 20.3422C96.5055 17.6827 94.2088 12.8859 92.7831 10.5558C90.0154 6.03281 86.5801 2.40499 83.6611 0.922612C82.0948 0.127035 81.8336 0.0566694 80.2758 0.00923659C79.0019 -0.0293761 78.3475 0.0486334 77.6089 0.327546ZM77.5245 3.34463C75.2192 4.49791 71.8368 8.152 69.497 12.0168C68.1739 14.2026 65.8746 19.0713 65.0078 21.523C63.3387 26.2445 62.5157 30.5973 62.6917 33.7732C62.8824 37.2142 63.6253 38.693 65.9236 40.2078C68.5926 41.9667 71.9621 42.9118 77.2592 43.3869L78.6715 43.5138L78.7275 41.5061C78.7811 39.5853 78.8062 39.4814 79.3093 39.1058C79.7648 38.766 79.9122 38.7452 80.4097 38.9516C81.209 39.283 81.4263 39.8996 81.4263 41.8352V43.5089L82.9434 43.3811C88.841 42.8848 93.4565 41.2899 95.5116 39.0384C96.916 37.5 97.3214 36.115 97.3115 32.8912C97.2839 24.0449 90.9032 9.90114 84.6186 4.75565C81.9879 2.60197 79.8566 2.17801 77.5245 3.34463ZM1.12751 12.4515C0.111303 13.0827 0.0866366 13.2598 0.0866366 19.9442C0.0866366 26.8729 0.0999485 26.946 1.46598 27.5175C2.50666 27.9528 12.1032 27.9174 13.035 27.4746C14.255 26.895 14.2795 26.7431 14.2795 19.7491V13.4476L13.6139 12.7812L12.9483 12.1148L7.30051 12.1201C2.37902 12.1246 1.5852 12.1671 1.12751 12.4515ZM16.7817 12.5568C16.4889 12.7988 16.1586 13.2451 16.0476 13.5486C15.9254 13.882 15.8456 16.4296 15.8456 19.9871C15.8456 24.8131 15.8984 25.9854 16.1392 26.4932C16.731 27.7421 16.242 27.6912 28.2765 27.7572C35.7267 27.798 39.4711 27.7494 39.9628 27.6055C40.3608 27.4889 40.8674 27.1633 41.0885 26.8819C41.4757 26.3891 41.4906 26.1296 41.4906 19.9089V13.4476L40.825 12.7812L40.1594 12.1148L28.7366 12.1158L17.3138 12.1168L16.7817 12.5568ZM44.2784 12.3745C43.1741 12.9886 43.159 13.0819 43.1003 19.6609C43.0512 25.1608 43.0792 25.8021 43.394 26.423C44.0149 27.6479 44.6551 27.82 48.3423 27.7545C50.8018 27.7108 51.6775 27.6273 52.0128 27.4048C52.7648 26.9062 53.0406 26.0259 53.0406 24.1245C53.0406 22.5494 52.9956 22.3328 52.5876 21.9491C51.9662 21.3646 51.2071 21.401 50.7057 22.0394C50.3917 22.4391 50.2999 22.8381 50.2999 23.8035V25.051H48.0486H45.7973V19.9549V14.8588H48.0486H50.2999V16.1111C50.2999 17.6488 50.6881 18.2562 51.6702 18.2562C52.7444 18.2562 53.0406 17.6846 53.0406 15.6115C53.0406 13.6938 52.8008 12.9758 51.9807 12.4378C51.57 12.1685 50.9262 12.116 48.1044 12.1217C45.7684 12.1266 44.5838 12.2048 44.2784 12.3745ZM2.9252 19.9549V25.051H7.23199H11.5388V19.9549V14.8588H7.23199H2.9252V19.9549ZM18.5863 19.9549V25.051H28.6681H38.7499V19.9549V14.8588H28.6681H18.5863V19.9549ZM0.867732 30.0119C-0.00165262 30.8823 -0.0498103 31.3329 0.0243839 37.8984C0.0801764 42.8289 0.12344 43.452 0.444492 43.9418C1.16627 45.0438 1.16099 45.0434 13.0201 45.0434C25.1081 45.0434 24.9094 45.0635 25.5208 43.7737C25.955 42.8571 25.981 31.6738 25.5513 30.6438C25.0032 29.3304 25.3283 29.3631 12.8015 29.3631H1.51571L0.867732 30.0119ZM28.0612 30.0295L27.3956 30.6959V37.0925C27.3956 42.7893 27.432 43.5449 27.7292 43.9991C28.4099 45.0391 28.4621 45.0434 40.2312 45.0434C52.3192 45.0434 52.1205 45.0635 52.7319 43.7737C53.1823 42.823 53.1925 31.4017 52.7436 30.5326C52.127 29.3386 52.3938 29.3631 40.0125 29.3631H28.7268L28.0612 30.0295ZM2.9252 37.2032V42.2993H13.007H23.0888V37.2032V32.1071H13.007H2.9252V37.2032ZM30.1363 37.2032V42.2993H40.2181H50.2999V37.2032V32.1071H40.2181H30.1363V37.2032ZM0.87615 47.2517C-0.00282711 48.1318 -0.0500061 48.5689 0.0243839 55.1467C0.0938799 61.2787 0.130879 61.4555 1.46598 62.0141C2.40702 62.4077 12.0362 62.4163 12.9733 62.0243C14.2732 61.4806 14.2795 61.4435 14.2795 54.3635V47.9897L13.7084 47.3495L13.1376 46.7094L7.33497 46.652L1.53254 46.5945L0.87615 47.2517ZM16.9969 46.9034C15.919 47.4954 15.8456 47.9769 15.8456 54.4515C15.8456 59.4355 15.8943 60.4733 16.1543 61.0219C16.7657 62.3118 16.567 62.2917 28.655 62.2917C40.353 62.2917 40.4767 62.2817 41.1713 61.2887C41.4506 60.8894 41.4906 60.0304 41.4906 54.4109V47.9897L40.9193 47.3495L40.3483 46.7094L28.9288 46.6657C19.3139 46.6288 17.4285 46.6665 16.9969 46.9034ZM44.1954 46.9481C43.179 47.5793 43.1545 47.7557 43.1545 54.4515C43.1545 61.294 43.1771 61.4371 44.3381 61.9888C44.8898 62.2509 46.4592 62.2913 56.0066 62.2887C67.8677 62.2856 67.6032 62.3079 68.3892 61.2483C68.7856 60.7138 68.7995 60.4839 68.7995 54.4672C68.7995 47.72 68.7766 47.5598 67.7262 46.9385C67.2266 46.6431 66.0863 46.612 55.9469 46.6167C45.8214 46.6214 44.6692 46.6537 44.1954 46.9481ZM2.9252 54.4515V59.5476H7.23199H11.5388V54.4515V49.3554H7.23199H2.9252V54.4515ZM18.5863 54.4515V59.5476H28.6681H38.7499V54.4515V49.3554H28.6681H18.5863V54.4515ZM45.7973 54.4515V59.5476H55.977H66.1567V54.4515V49.3554H55.977H45.7973V54.4515ZM78.2688 52.6777C76.8781 53.4349 76.2407 54.5932 76.1064 56.6076L76.0475 57.4896L77.4155 57.8447C79.0082 58.2583 81.8074 58.2015 83.0902 57.7293L83.8733 57.4412L83.8263 56.2363C83.7333 53.8582 82.4219 52.4605 80.1798 52.35C79.2725 52.3053 78.8058 52.3853 78.2688 52.6777ZM75.747 60.5766C75.7458 60.7115 75.6918 61.1431 75.6268 61.5359L75.5089 62.2501L76.8912 62.5649C77.6514 62.738 79.0489 62.8775 79.9966 62.875C81.5206 62.8707 82.1042 62.7977 83.9222 62.3844C84.3067 62.2969 84.3627 62.1599 84.3627 61.3079C84.3627 60.1917 84.425 60.2146 82.503 60.6223C81.7493 60.782 80.6041 60.9128 79.958 60.9128C79.312 60.9128 78.1668 60.782 77.4131 60.6223C75.7548 60.2705 75.7497 60.2705 75.747 60.5766ZM1.37789 64.1076C1.11909 64.2407 0.722671 64.5984 0.496956 64.9026C0.106996 65.4281 0.0835044 65.7294 0.0243839 70.9787C-0.00967888 74.0164 0.018511 76.8823 0.0872239 77.3473C0.16455 77.8698 0.424916 78.4314 0.769067 78.8173L1.32601 79.4419L3.88092 79.5064C6.39354 79.5697 6.44405 79.5627 6.93189 79.0742C7.55637 78.449 7.56127 77.8918 6.94716 77.2771C6.50787 76.8371 6.31504 76.7959 4.69588 76.7959H2.9252V71.6998V66.6037H13.007H23.0888V71.6998V76.7959H17.3402C11.8209 76.7959 11.5711 76.8122 11.0758 77.2022C10.7338 77.4715 10.56 77.7969 10.56 78.1679C10.56 78.539 10.7338 78.8643 11.0758 79.1336C11.5728 79.5251 11.8162 79.5399 17.7511 79.5399C24.6224 79.5399 24.9439 79.4874 25.5208 78.2702C25.9704 77.3212 25.9806 66.1 25.5327 65.1547C24.8977 63.815 25.3291 63.8593 12.9769 63.8626C4.53418 63.8648 1.73496 63.924 1.37789 64.1076ZM28.4359 64.2419C28.0927 64.4514 27.7184 64.798 27.6039 65.0124C27.469 65.2644 27.3956 67.6224 27.3956 71.6937C27.3956 77.2085 27.4355 78.0466 27.7182 78.4788C28.4236 79.5564 28.2319 79.5399 40.1167 79.5399C52.1579 79.5399 52.1387 79.5417 52.734 78.389C53.1831 77.5195 53.1915 65.8966 52.7436 65.0292C52.1276 63.8364 52.3777 63.8597 40.1789 63.8605C29.5142 63.8611 29.0341 63.8767 28.4359 64.2419ZM55.7349 64.1664C54.6502 64.7558 54.6067 65.0455 54.6067 71.6998C54.6067 76.8496 54.6543 77.8874 54.9133 78.389C55.4673 79.4617 55.9624 79.5399 62.1982 79.5399C67.6101 79.5399 67.8626 79.5233 68.2731 79.1403C68.8316 78.6195 68.8316 77.7163 68.2731 77.1956C67.8642 76.8139 67.6075 76.7959 62.596 76.7959H57.3474V71.6998V66.6037H62.6238C66.0737 66.6037 68.0652 66.5285 68.3773 66.3862C69.3508 65.942 69.4409 64.5567 68.5282 64.0676C68.278 63.9336 66.0293 63.8624 62.2054 63.8675C57.3382 63.874 56.1744 63.9277 55.7349 64.1664ZM75.274 65.4742C75.1152 66.2354 74.3729 74.8815 74.3758 75.9315C74.3796 77.2026 75.2926 79.0999 76.3014 79.9331C79.6652 82.7111 84.5751 80.9968 85.5347 76.7091C85.6923 76.0054 85.625 74.6203 85.2315 70.4713C84.9533 67.5379 84.7014 65.1133 84.6712 65.0833C84.6413 65.0533 83.9814 65.1627 83.2046 65.3262C82.4278 65.4898 80.939 65.6216 79.8964 65.619C78.2202 65.6147 77.6257 65.5435 75.8024 65.1294C75.4664 65.0531 75.3453 65.1323 75.274 65.4742ZM30.1363 71.6998V76.7959H40.2181H50.2999V71.6998V66.6037H40.2181H30.1363V71.6998Z" fill="white"/>
</svg>
