<svg width="105" height="104" viewBox="0 0 105 104" fill="none" xmlns="http://www.w3.org/2000/svg">
<g id="Group 35">
<path id="Vector 2" d="M2 2V102M2 102H13.6M2 102L2.1 2H86L87 102H43.95M13.6 102V26.2972H43.95M13.6 102H43.95M43.95 102H74.3V100.896V26.2972H43.95M43.95 102V67.0602M43.95 26.2972V60.9357" stroke="white" stroke-width="3"/>
<path id="Vector 3" d="M26.2 19.6706V7.92358H62.2V19.6706H26.2Z" stroke="white" stroke-width="3"/>
<path id="Vector 4" d="M96.9 52.1003L92.5 60.5341H102L96.9 52.1003Z" stroke="white" stroke-width="3"/>
<path id="Vector 5" d="M96.9 72.5824L92.5 64.1487H102L96.9 72.5824Z" stroke="white" stroke-width="3"/>
<ellipse id="Ellipse 1" cx="32.1999" cy="13.8473" rx="1.3" ry="1.30522" fill="white"/>
<ellipse id="Ellipse 2" cx="38.1999" cy="13.8473" rx="1.3" ry="1.30522" fill="white"/>
<ellipse id="Ellipse 3" cx="44.1999" cy="13.8473" rx="1.3" ry="1.30522" fill="white"/>
<ellipse id="Ellipse 4" cx="50.1999" cy="13.8473" rx="1.3" ry="1.30522" fill="white"/>
<ellipse id="Ellipse 5" cx="56.1999" cy="13.8473" rx="1.3" ry="1.30522" fill="white"/>
</g>
</svg>
