<svg width="100" height="72" viewBox="0 0 100 72" fill="none" xmlns="http://www.w3.org/2000/svg">
<g id="Group 38">
<path id="Vector 14" d="M14.966 70H7.48299M0 70H7.48299M7.48299 70V2H28.5714M62.585 70H69.7279M69.7279 70H76.8707H70.068V67.2525V54.202M69.7279 70L70.068 54.202M70.068 54.202H92.517M70.068 54.202V40.4646M92.517 54.202V70H86.3946H93.1973M92.517 54.202V23.2929M100 70H93.1973M93.1973 70L92.7671 40.4646M92.517 23.2929L92.567 26.7273M92.517 23.2929L88.4354 15.7374L84.3537 12.303L79.5918 10.2424H74.1497H70.068M92.7671 40.4646H70.068M92.7671 40.4646L92.567 26.7273M70.068 40.4646V26.7273M70.068 26.7273H92.567M70.068 26.7273V10.2424M70.068 10.2424V2H49.6599M49.6599 2V23.2929M49.6599 2H28.5714M28.5714 2V23.2929" stroke="white" stroke-width="3"/>
<path id="Ellipse 6" d="M35.9149 30.8484C35.9149 34.9651 32.6134 38.2777 28.5713 38.2777C24.5292 38.2777 21.2278 34.9651 21.2278 30.8484C21.2278 26.7316 24.5292 23.4191 28.5713 23.4191C32.6134 23.4191 35.9149 26.7316 35.9149 30.8484Z" stroke="white" stroke-width="3"/>
<path id="Ellipse 7" d="M56.3231 30.8484C56.3231 34.9651 53.0216 38.2777 48.9795 38.2777C44.9374 38.2777 41.636 34.9651 41.636 30.8484C41.636 26.7316 44.9374 23.4191 48.9795 23.4191C53.0216 23.4191 56.3231 26.7316 56.3231 30.8484Z" stroke="white" stroke-width="3"/>
</g>
</svg>
