<svg width="104" height="104" viewBox="0 0 104 104" fill="none" xmlns="http://www.w3.org/2000/svg">
<g id="Group 36">
<path id="Vector 6" d="M2 102V2H102V102H2Z" stroke="white" stroke-width="3"/>
<path id="Vector 7" d="M10.2166 49.0947V11.2761H37.9721M10.2166 49.0947L48.7937 11.2761M10.2166 49.0947H20.8378M48.7937 11.2761H37.9721M48.7937 11.2761V49.0947H20.8378M37.9721 11.2761L20.8378 29.0131M20.8378 49.0947L37.9721 33.0906" stroke="white" stroke-width="3"/>
<path id="Vector 9" d="M54.2043 92.3161V54.4976H81.9599M54.2043 92.3161L92.7815 54.4976M54.2043 92.3161H64.8256M92.7815 54.4976H81.9599M92.7815 54.4976V92.3161H64.8256M81.9599 54.4976L64.8256 72.2346M64.8256 92.3161L81.9599 76.312" stroke="white" stroke-width="3"/>
<path id="Vector 8" d="M10.9177 54.5994H48.9939V93.1315H10.9177V54.5994Z" stroke="white" stroke-width="3"/>
<path id="Vector 10" d="M54.6052 10.4608H92.6814V48.9929H54.6052V10.4608Z" stroke="white" stroke-width="3"/>
</g>
</svg>
