<svg width="104" height="104" viewBox="0 0 104 104" fill="none" xmlns="http://www.w3.org/2000/svg">
<g id="icon13">
<path id="Vector" d="M24.2223 35.39L24.3223 35.3282" stroke="white" stroke-width="3" stroke-linecap="round" stroke-linejoin="round"/>
<path id="Vector_2" d="M46.4446 35.39L46.5446 35.3282" stroke="white" stroke-width="3" stroke-linecap="round" stroke-linejoin="round"/>
<path id="Vector_3" d="M24.2223 57.6122L24.3223 57.5505" stroke="white" stroke-width="3" stroke-linecap="round" stroke-linejoin="round"/>
<path id="Vector_4" d="M46.4446 57.6122L46.5001 57.5505" stroke="white" stroke-width="3" stroke-linecap="round" stroke-linejoin="round"/>
<path id="Vector_5" d="M24.2223 79.8339L24.2778 79.7722" stroke="white" stroke-width="3" stroke-linecap="round" stroke-linejoin="round"/>
<path id="Vector_6" d="M46.4446 79.8339L46.5446 79.7722" stroke="white" stroke-width="3" stroke-linecap="round" stroke-linejoin="round"/>
<path id="Vector_7" d="M68.6667 102H5.33333C3.49239 102 2 100.508 2 98.6667V16.4444C2 14.6035 3.49239 13.1111 5.33333 13.1111H35.3333V5.33333C35.3333 3.49239 36.8257 2 38.6667 2H65.3333C67.1744 2 68.6667 3.49239 68.6667 5.33333V35.3333M68.6667 102H98.6667C100.508 102 102 100.508 102 98.6667V38.6667C102 36.8257 100.508 35.3333 98.6667 35.3333H68.6667M68.6667 102V79.7778M68.6667 35.3333V57.5556M68.6667 79.7778V57.5556M68.6667 79.7778H79.7778M68.6667 57.5556H79.7778" stroke="white" stroke-width="3" stroke-linecap="round" stroke-linejoin="round"/>
</g>
</svg>
