<svg width="104" height="76" viewBox="0 0 104 76" fill="none" xmlns="http://www.w3.org/2000/svg">
<path id="Vector" d="M102 56V20M16.2857 63.2V12.8M30.5714 63.2V12.8M44.8571 63.2V12.8M59.1429 63.2V12.8M73.4286 63.2V12.8M87.7143 66.8V9.2C87.7143 7.29044 86.9617 5.45909 85.6222 4.10883C84.2826 2.75857 82.4658 2 80.5714 2H9.14286C7.24845 2 5.43164 2.75857 4.09209 4.10883C2.75255 5.45909 2 7.29044 2 9.2V66.8C2 68.7096 2.75255 70.5409 4.09209 71.8912C5.43164 73.2414 7.24845 74 9.14286 74H80.5714C82.4658 74 84.2826 73.2414 85.6222 71.8912C86.9617 70.5409 87.7143 68.7096 87.7143 66.8Z" stroke="white" stroke-width="4"/>
</svg>
