<svg width="44" height="44" viewBox="0 0 44 44" fill="none" xmlns="http://www.w3.org/2000/svg">
<g id="icon13">
<path id="Vector" d="M10.8889 15.356L10.9111 15.3313" stroke="#6F7D5C" stroke-width="3" stroke-linecap="round" stroke-linejoin="round"/>
<path id="Vector_2" d="M19.7778 15.356L19.8 15.3313" stroke="#6F7D5C" stroke-width="3" stroke-linecap="round" stroke-linejoin="round"/>
<path id="Vector_3" d="M10.8889 24.2449L10.9111 24.2202" stroke="#6F7D5C" stroke-width="3" stroke-linecap="round" stroke-linejoin="round"/>
<path id="Vector_4" d="M19.7778 24.2449L19.8 24.2202" stroke="#6F7D5C" stroke-width="3" stroke-linecap="round" stroke-linejoin="round"/>
<path id="Vector_5" d="M10.8889 33.1336L10.9111 33.1089" stroke="#6F7D5C" stroke-width="3" stroke-linecap="round" stroke-linejoin="round"/>
<path id="Vector_6" d="M19.7778 33.1336L19.8 33.1089" stroke="#6F7D5C" stroke-width="3" stroke-linecap="round" stroke-linejoin="round"/>
<path id="Vector_7" d="M28.6667 42H3.33333C2.59696 42 2 41.4031 2 40.6667V7.77778C2 7.0414 2.59696 6.44444 3.33333 6.44444H15.3333V3.33333C15.3333 2.59696 15.9303 2 16.6667 2H27.3333C28.0698 2 28.6667 2.59696 28.6667 3.33333V15.3333M28.6667 42H40.6667C41.4031 42 42 41.4031 42 40.6667V16.6667C42 15.9303 41.4031 15.3333 40.6667 15.3333H28.6667M28.6667 42V33.1111M28.6667 15.3333V24.2222M28.6667 33.1111V24.2222M28.6667 33.1111H33.1111M28.6667 24.2222H33.1111" stroke="#6F7D5C" stroke-width="3" stroke-linecap="round" stroke-linejoin="round"/>
</g>
</svg>
