<svg width="44" height="36" viewBox="0 0 44 36" fill="none" xmlns="http://www.w3.org/2000/svg">
<path id="icon9" d="M22 3.68421C17.3687 3.68421 12.7426 3.36589 8.15652 2.73095L2.86957 2H2V34H2.86957L8.15652 33.2691C12.7419 32.6345 17.368 32.3159 22 32.3158M22 3.68421C26.6313 3.68421 31.2574 3.36589 35.8435 2.73095L41.1304 2H42V34H41.1304L35.8435 33.2691C31.2581 32.6345 26.632 32.3159 22 32.3158M22 3.68421V12.9474M22 32.3158V23.0526M22 12.9474C23.3837 12.9474 24.7108 13.4797 25.6893 14.4272C26.6677 15.3748 27.2174 16.66 27.2174 18C27.2174 19.34 26.6677 20.6252 25.6893 21.5728C24.7108 22.5203 23.3837 23.0526 22 23.0526M22 12.9474C20.6163 12.9474 19.2892 13.4797 18.3107 14.4272C17.3323 15.3748 16.7826 16.66 16.7826 18C16.7826 19.34 17.3323 20.6252 18.3107 21.5728C19.2892 22.5203 20.6163 23.0526 22 23.0526M2 10.4211H2.86957C4.94517 10.4211 6.93577 11.2195 8.40344 12.6409C9.87112 14.0622 10.6957 15.9899 10.6957 18C10.6957 20.0101 9.87112 21.9378 8.40344 23.3591C6.93577 24.7805 4.94517 25.5789 2.86957 25.5789H2M42 25.5789H41.1304C39.0548 25.5789 37.0642 24.7805 35.5966 23.3591C34.1289 21.9378 33.3043 20.0101 33.3043 18C33.3043 15.9899 34.1289 14.0622 35.5966 12.6409C37.0642 11.2195 39.0548 10.4211 41.1304 10.4211H42" stroke="#6F7D5C" stroke-width="3"/>
</svg>
