<svg width="44" height="46" viewBox="0 0 44 46" fill="none" xmlns="http://www.w3.org/2000/svg">
<g id="icon12">
<path id="Vector 15" d="M14.8302 32.0465V42.2083C14.8302 43.198 14.0279 44.0003 13.0383 44.0003H7.06235C6.0727 44.0003 5.27044 43.198 5.27044 42.2083V30.9251C5.27044 30.0923 4.69668 29.3693 3.88566 29.1801L3.38478 29.0632C2.57376 28.874 2 28.151 2 27.3182V17.561C2 16.5713 2.80226 15.769 3.79191 15.769H16.2617C16.7897 15.769 17.2908 16.0019 17.6313 16.4055L23.853 23.78C24.1935 24.1836 24.6946 24.4164 25.2226 24.4164H39.5887C40.1561 24.4164 40.6899 24.6851 41.0279 25.1407L41.6472 25.9756C41.8763 26.2844 42 26.6587 42 27.0432V32.073C42 32.5449 41.8139 32.9977 41.4821 33.3331L40.8553 33.9668C40.6219 34.2028 40.3038 34.3355 39.972 34.3355V34.3355C39.2858 34.3355 38.7296 34.8918 38.7296 35.5779V42.2083C38.7296 43.198 37.9273 44.0003 36.9377 44.0003H33.2259C32.2362 44.0003 31.434 43.198 31.434 42.2083V34.3355" stroke="#6F7D5C" stroke-width="3"/>
<path id="Ellipse 8" d="M14.8388 6.61272C14.8388 9.45188 12.5666 11.7254 9.79796 11.7254C7.02936 11.7254 4.75708 9.45188 4.75708 6.61272C4.75708 3.77355 7.02936 1.5 9.79796 1.5C12.5666 1.5 14.8388 3.77355 14.8388 6.61272Z" stroke="#6F7D5C" stroke-width="3"/>
<path id="Ellipse 9" d="M38.9911 16.2768C38.9911 18.5541 37.1693 20.3721 34.9565 20.3721C32.7436 20.3721 30.9219 18.5541 30.9219 16.2768C30.9219 13.9995 32.7436 12.1814 34.9565 12.1814C37.1693 12.1814 38.9911 13.9995 38.9911 16.2768Z" stroke="#6F7D5C" stroke-width="3"/>
</g>
</svg>
