<svg width="48" height="64" viewBox="0 0 48 64" fill="none" xmlns="http://www.w3.org/2000/svg">
<g id="&#208;&#166;&#208;&#181;&#208;&#189;&#209;&#130;&#209;&#128; &#208;&#188;&#209;&#150;&#209;&#129;&#209;&#130;&#208;&#176;">
<g id="Vector" filter="url(#filter0_d_2454_4103)">
<path d="M24 0C12.9587 0 4 8.06375 4 18C4 34 24 56 24 56C24 56 44 34 44 18C44 8.06375 35.0413 0 24 0ZM24 28C22.4177 28 20.871 27.5308 19.5554 26.6518C18.2398 25.7727 17.2145 24.5233 16.609 23.0615C16.0035 21.5997 15.845 19.9911 16.1537 18.4393C16.4624 16.8874 17.2243 15.462 18.3431 14.3431C19.462 13.2243 20.8874 12.4624 22.4393 12.1537C23.9911 11.845 25.5997 12.0035 27.0615 12.609C28.5233 13.2145 29.7727 14.2398 30.6518 15.5554C31.5308 16.871 32 18.4177 32 20C31.9977 22.121 31.1541 24.1545 29.6543 25.6543C28.1545 27.1541 26.121 27.9977 24 28Z" fill="#6F7D5C"/>
</g>
</g>
<defs>
<filter id="filter0_d_2454_4103" x="0" y="0" width="48" height="64" filterUnits="userSpaceOnUse" color-interpolation-filters="sRGB">
<feFlood flood-opacity="0" result="BackgroundImageFix"/>
<feColorMatrix in="SourceAlpha" type="matrix" values="0 0 0 0 0 0 0 0 0 0 0 0 0 0 0 0 0 0 127 0" result="hardAlpha"/>
<feOffset dy="4"/>
<feGaussianBlur stdDeviation="2"/>
<feComposite in2="hardAlpha" operator="out"/>
<feColorMatrix type="matrix" values="0 0 0 0 0 0 0 0 0 0 0 0 0 0 0 0 0 0 0.25 0"/>
<feBlend mode="normal" in2="BackgroundImageFix" result="effect1_dropShadow_2454_4103"/>
<feBlend mode="normal" in="SourceGraphic" in2="effect1_dropShadow_2454_4103" result="shape"/>
</filter>
</defs>
</svg>
