<svg width="44" height="42" viewBox="0 0 44 42" fill="none" xmlns="http://www.w3.org/2000/svg">
<g id="icon10">
<path id="Vector" d="M2 28.8236C7.51724 28.8236 11.6552 22.1177 11.6552 22.1177C11.6552 22.1177 15.7931 28.8236 21.3104 28.8236C26.8276 28.8236 32.3449 22.1177 32.3449 22.1177C32.3449 22.1177 37.862 28.8236 42 28.8236" stroke="#6F7D5C" stroke-width="3" stroke-linecap="round" stroke-linejoin="round"/>
<path id="Vector_2" d="M2 40.0003C7.51724 40.0003 11.6552 33.2944 11.6552 33.2944C11.6552 33.2944 15.7931 40.0003 21.3104 40.0003C26.8276 40.0003 32.3449 33.2944 32.3449 33.2944C32.3449 33.2944 37.862 40.0003 42 40.0003" stroke="#6F7D5C" stroke-width="3" stroke-linecap="round" stroke-linejoin="round"/>
<path id="Vector_3" d="M6.44434 18.7652L15.3332 13.1769L12.6956 9.8605C11.707 8.61748 11.9366 6.79824 13.2026 5.84312C14.3966 4.94239 16.0828 5.1405 17.0382 6.29378L26.4443 17.6475" stroke="#6F7D5C" stroke-width="3" stroke-linecap="round" stroke-linejoin="round"/>
<path id="Vector_4" d="M32 13.1765C35.0682 13.1765 37.5555 10.6745 37.5555 7.58823C37.5555 4.50194 35.0682 2 32 2C28.9317 2 26.4444 4.50194 26.4444 7.58823C26.4444 10.6745 28.9317 13.1765 32 13.1765Z" stroke="#6F7D5C" stroke-width="3" stroke-linecap="round" stroke-linejoin="round"/>
</g>
</svg>
