<svg width="44" height="42" viewBox="0 0 44 42" fill="none" xmlns="http://www.w3.org/2000/svg">
<path id="icon8" d="M2 31.7864V40.2977M5.47826 30.0841V42M31.5652 31.7864V40.2977M28.087 30.0841V42M5.47826 36.042H28.087M24.6087 36.042L22.8696 29.233C22.8696 29.233 20.2609 27.5307 16.7826 27.5307C13.3043 27.5307 10.6957 29.233 10.6957 29.233L8.95652 36.042M42 16.4659V24.9773M38.5217 14.7636V26.6795M23.7391 20.7216H38.5217M35.0435 20.7216L33.3043 13.9125C33.3043 13.9125 30.6957 12.2102 27.2174 12.2102C23.7391 12.2102 21.1304 13.9125 21.1304 13.9125L20.6957 15.6148M16.5217 24.1261C16.5217 24.1261 13.7391 22.4239 13.7391 20.296C13.7391 19.5069 14.0594 18.75 14.6295 18.192C15.1996 17.6339 15.9729 17.3205 16.7791 17.3205C17.5854 17.3205 18.3586 17.6339 18.9287 18.192C19.4988 18.75 19.8191 19.5069 19.8191 20.296C19.8191 22.4239 17.0435 24.1261 17.0435 24.1261H16.5217ZM26.9565 8.80569C26.9565 8.80569 24.1739 7.10341 24.1739 4.97557C24.1739 4.1864 24.4942 3.42955 25.0643 2.87152C25.6344 2.3135 26.4077 2 27.2139 2C28.0202 2 28.7934 2.3135 29.3635 2.87152C29.9336 3.42955 30.2539 4.1864 30.2539 4.97557C30.2539 7.10341 27.4783 8.80569 27.4783 8.80569H26.9565Z" stroke="#6F7D5C" stroke-width="3"/>
</svg>
