<svg width="52" height="52" viewBox="0 0 52 52" fill="none" xmlns="http://www.w3.org/2000/svg">
<g id="Group">
<path id="Vector" d="M2 26C2 14.6872 2 9.02821 5.51411 5.51411C9.02821 2 14.6846 2 26 2C37.3128 2 42.9718 2 46.4859 5.51411C50 9.02821 50 14.6846 50 26C50 37.3128 50 42.9718 46.4859 46.4859C42.9718 50 37.3154 50 26 50C14.6872 50 9.02821 50 5.51411 46.4859C2 42.9718 2 37.3154 2 26Z" stroke="white" stroke-width="4" stroke-linecap="round" stroke-linejoin="round"/>
<path id="Vector_2" d="M39.915 12.105H39.8897M37.3684 25.9997C37.3684 29.0148 36.1707 31.9064 34.0387 34.0384C31.9067 36.1704 29.0151 37.3681 26 37.3681C22.9849 37.3681 20.0933 36.1704 17.9613 34.0384C15.8293 31.9064 14.6316 29.0148 14.6316 25.9997C14.6316 22.9846 15.8293 20.093 17.9613 17.961C20.0933 15.829 22.9849 14.6313 26 14.6313C29.0151 14.6313 31.9067 15.829 34.0387 17.961C36.1707 20.093 37.3684 22.9846 37.3684 25.9997Z" stroke="white" stroke-width="4" stroke-linecap="round" stroke-linejoin="round"/>
</g>
</svg>
