<svg width="18" height="22" viewBox="0 0 18 22" fill="none" xmlns="http://www.w3.org/2000/svg">
<path fill-rule="evenodd" clip-rule="evenodd" d="M9.27787 20.4452C10.5718 19.3204 11.7692 18.0978 12.8588 16.7893C15.1538 14.0268 16.5499 11.3031 16.6444 8.88127C16.6818 7.89699 16.5117 6.91559 16.1444 5.9957C15.777 5.0758 15.2199 4.23627 14.5063 3.52727C13.7927 2.81827 12.9373 2.25434 11.9911 1.86916C11.045 1.48399 10.0275 1.28547 8.99944 1.28547C7.9714 1.28547 6.95391 1.48399 6.00775 1.86916C5.06158 2.25434 4.20616 2.81827 3.49257 3.52727C2.77898 4.23627 2.22187 5.0758 1.85452 5.9957C1.48716 6.91559 1.31711 7.89699 1.3545 8.88127C1.45012 11.3031 2.84737 14.0268 5.14125 16.7893C6.23077 18.0978 7.42825 19.3204 8.72213 20.4452C8.84663 20.553 8.93925 20.6313 9 20.6802L9.27787 20.4452ZM8.16975 21.7009C8.16975 21.7009 0 15.1089 0 8.62259C0 6.33574 0.948212 4.14255 2.63604 2.5255C4.32387 0.908449 6.61305 0 9 0C11.3869 0 13.6761 0.908449 15.364 2.5255C17.0518 4.14255 18 6.33574 18 8.62259C18 15.1089 9.83025 21.7009 9.83025 21.7009C9.37575 22.1019 8.62763 22.0975 8.16975 21.7009ZM9 11.6405C9.83543 11.6405 10.6366 11.3225 11.2274 10.7566C11.8181 10.1906 12.15 9.42299 12.15 8.62259C12.15 7.82219 11.8181 7.05457 11.2274 6.48861C10.6366 5.92264 9.83543 5.60468 9 5.60468C8.16457 5.60468 7.36335 5.92264 6.77261 6.48861C6.18187 7.05457 5.85 7.82219 5.85 8.62259C5.85 9.42299 6.18187 10.1906 6.77261 10.7566C7.36335 11.3225 8.16457 11.6405 9 11.6405ZM9 12.9339C7.80653 12.9339 6.66193 12.4797 5.81802 11.6711C4.97411 10.8626 4.5 9.76602 4.5 8.62259C4.5 7.47916 4.97411 6.38257 5.81802 5.57404C6.66193 4.76552 7.80653 4.31129 9 4.31129C10.1935 4.31129 11.3381 4.76552 12.182 5.57404C13.0259 6.38257 13.5 7.47916 13.5 8.62259C13.5 9.76602 13.0259 10.8626 12.182 11.6711C11.3381 12.4797 10.1935 12.9339 9 12.9339Z" fill="white"/>
</svg>
