<svg width="20" height="16" viewBox="0 0 20 16" fill="none" xmlns="http://www.w3.org/2000/svg">
<path id="Vector" d="M1.79556 15.5C1.2837 15.5 0.856667 15.335 0.514445 15.005C0.172222 14.675 0.000740741 14.2629 0 13.7686V2.23143C0 1.73786 0.171482 1.32607 0.514445 0.996071C0.857408 0.666071 1.28407 0.500714 1.79444 0.5H18.2056C18.7167 0.5 19.1433 0.665357 19.4856 0.996071C19.8278 1.32679 19.9993 1.73857 20 2.23143V13.7696C20 14.2625 19.8285 14.6743 19.4856 15.005C19.1426 15.3357 18.7159 15.5007 18.2056 15.5H1.79556ZM10 8.12428L1.11111 2.51964V13.7696C1.11111 13.9618 1.17519 14.1196 1.30333 14.2432C1.43148 14.3668 1.59556 14.4286 1.79556 14.4286H18.2056C18.4048 14.4286 18.5685 14.3668 18.6967 14.2432C18.8248 14.1196 18.8889 13.9614 18.8889 13.7686V2.51857L10 8.12428ZM10 6.92857L18.5467 1.57143H1.45333L10 6.92857ZM1.11111 2.51964V1.57143V13.7696C1.11111 13.9618 1.17519 14.1196 1.30333 14.2432C1.43148 14.3668 1.59556 14.4286 1.79556 14.4286H1.11111V2.51964Z" fill="white"/>
</svg>
