<svg width="70" height="80" viewBox="0 0 70 80" fill="none" xmlns="http://www.w3.org/2000/svg">
<g id="Group 43">
<path id="Vector" d="M13.4616 42.6666H10.7693V37.3333H13.4616C14.1756 37.3333 14.8604 37.6142 15.3653 38.1143C15.8702 38.6144 16.1539 39.2927 16.1539 39.9999C16.1539 40.7072 15.8702 41.3854 15.3653 41.8855C14.8604 42.3856 14.1756 42.6666 13.4616 42.6666ZM32.3078 53.3333V37.3333H35.0001C35.7141 37.3333 36.3989 37.6142 36.9038 38.1143C37.4087 38.6144 37.6924 39.2927 37.6924 39.9999V50.6666C37.6924 51.3738 37.4087 52.0521 36.9038 52.5522C36.3989 53.0523 35.7141 53.3333 35.0001 53.3333H32.3078Z" fill="white"/>
<path id="Vector_2" fill-rule="evenodd" clip-rule="evenodd" d="M0 8C0 5.87827 0.850959 3.84344 2.36568 2.34315C3.88039 0.842855 5.93479 0 8.07692 0L52.2685 0L70 17.5627V72C70 74.1217 69.149 76.1566 67.6343 77.6569C66.1196 79.1572 64.0652 80 61.9231 80H8.07692C5.93479 80 3.88039 79.1572 2.36568 77.6569C0.850959 76.1566 0 74.1217 0 72V8ZM13.4615 32H5.38462V58.6667H10.7692V48H13.4615C15.6037 48 17.6581 47.1571 19.1728 45.6569C20.6875 44.1566 21.5385 42.1217 21.5385 40C21.5385 37.8783 20.6875 35.8434 19.1728 34.3431C17.6581 32.8429 15.6037 32 13.4615 32ZM35 32H26.9231V58.6667H35C37.1421 58.6667 39.1965 57.8238 40.7112 56.3235C42.226 54.8232 43.0769 52.7884 43.0769 50.6667V40C43.0769 37.8783 42.226 35.8434 40.7112 34.3431C39.1965 32.8429 37.1421 32 35 32ZM48.4615 58.6667V32H64.6154V37.3333H53.8462V42.6667H59.2308V48H53.8462V58.6667H48.4615Z" fill="white"/>
</g>
</svg>
