<svg width="24" height="24" viewBox="0 0 24 24" fill="none" xmlns="http://www.w3.org/2000/svg">
<path id="Vector" d="M22.6 24C19.8222 24 17.0724 23.4 14.3507 22.2C11.6289 21 9.15644 19.2889 6.93333 17.0667C4.71022 14.8444 2.99911 12.3778 1.8 9.66667C0.600889 6.95556 0.000888889 4.2 0 1.4V0H7.86667L9.1 6.7L5.3 10.5333C5.78889 11.4 6.33333 12.2222 6.93333 13C7.53333 13.7778 8.17778 14.5 8.86667 15.1667C9.51111 15.8111 10.2169 16.428 10.984 17.0173C11.7511 17.6067 12.5787 18.1564 13.4667 18.6667L17.3333 14.8L24 16.1667V24H22.6Z" fill="white"/>
</svg>
