<svg width="48" height="48" viewBox="0 0 48 48" fill="none" xmlns="http://www.w3.org/2000/svg">
<rect width="48" height="48" rx="7" fill="#6F7D5C"/>
<path d="M38 36.5356L30.1787 28.7142C32.0582 26.4578 32.9954 23.5637 32.7954 20.6339C32.5954 17.704 31.2736 14.9641 29.1049 12.984C26.9362 11.004 24.0876 9.93624 21.1518 10.0029C18.2159 10.0697 15.4187 11.2657 13.3422 13.3422C11.2657 15.4187 10.0697 18.2159 10.0029 21.1518C9.93624 24.0876 11.004 26.9362 12.984 29.1049C14.9641 31.2736 17.704 32.5954 20.6339 32.7954C23.5637 32.9954 26.4578 32.0582 28.7142 30.1787L36.5356 38L38 36.5356ZM12.1084 21.4294C12.1084 19.5858 12.655 17.7837 13.6792 16.2509C14.7034 14.7181 16.1592 13.5234 17.8624 12.8179C19.5656 12.1124 21.4397 11.9278 23.2478 12.2875C25.0559 12.6471 26.7167 13.5349 28.0203 14.8384C29.3239 16.142 30.2116 17.8028 30.5712 19.6109C30.9309 21.419 30.7463 23.2932 30.0408 24.9963C29.3353 26.6995 28.1406 28.1553 26.6078 29.1795C25.075 30.2037 23.2729 30.7503 21.4294 30.7503C18.9581 30.7476 16.5889 29.7647 14.8414 28.0173C13.094 26.2698 12.1111 23.9006 12.1084 21.4294Z" fill="white"/>
</svg>
